<svg xmlns="http://www.w3.org/2000/svg" viewBox="0 0 512 512">
  <rect width="512" height="512" rx="64" fill="#26a69a"/>
  <g transform="translate(128, 64) scale(1)">
    <!-- Flame shape for calories -->
    <path d="M128 384c-53 0-96-43-96-96 0-42 27-78 64-91 0 0-5-37 32-69 0 0 10 42 48 58 0 0-10-74 48-122 0 0 20 60 0 108 30-20 48-52 48-88 0 0 48 40 48 108 0 53-43 96-96 96-20 0-38-6-52-16 8-10 12-22 12-36 0-35-28-64-56-64s-56 29-56 64c0 14 4 26 12 36-14 10-32 16-52 16z" fill="#fff"/>
  </g>
</svg>
